<svg xmlns="http://www.w3.org/2000/svg" version="1.1" xmlns:xlink="http://www.w3.org/1999/xlink" xmlns:svgjs="http://svgjs.dev/svgjs" width="1000" height="1000" viewBox="0 0 1000 1000"><rect width="1000" height="1000" fill="#ffffff"></rect><g transform="matrix(0.7,0,0,0.7,149.57575757575756,252.54999999999998)"><svg viewBox="0 0 396 280" data-background-color="#444444" preserveAspectRatio="xMidYMid meet" height="707" width="1000" xmlns="http://www.w3.org/2000/svg" xmlns:xlink="http://www.w3.org/1999/xlink"><g id="tight-bounds" transform="matrix(1,0,0,1,0.2400000000000091,0)"><svg viewBox="0 0 395.52 280" height="280" width="395.52"><g><svg viewBox="0 0 395.52 280" height="280" width="395.52"><g><svg viewBox="0 0 395.52 280" height="280" width="395.52"><g><svg viewBox="0 0 395.52 280" height="280" width="395.52"><g><svg viewBox="0 0 395.52 280" height="280" width="395.52"><g transform="matrix(1,0,0,1,95.65203525306555,57.50420886156945)"><svg viewBox="0 0 204.21592949386888 164.9915822768611" height="164.9915822768611" width="204.21592949386888"><g><circle r="82" cx="102.10796474693444" cy="82.49579113843055" fill="#000000" data-fill-palette-color="accent"></circle><svg xmlns="http://www.w3.org/2000/svg" xmlns:xlink="http://www.w3.org/1999/xlink" version="1.1" x="34.95935926186291" y="34.959359261862915" viewBox="8.5 5 83.0999984741211 90" enable-background="new 0 0 100 100" xml:space="preserve" height="95.07286375313527" width="134.29721097014308" class="icon-o-0" data-fill-palette-color="quaternary" id="o-0"><g fill="#444444" data-fill-palette-color="quaternary"><g fill="#444444" data-fill-palette-color="quaternary"><path d="M25.6 67.5c-8.8-3.3-10.3-10.8-7.8-17.5 1.4-3.7 26.2 6.5 25.1 9.4C40.4 66 34.4 70.8 25.6 67.5z" fill="#444444" data-fill-palette-color="quaternary"></path></g><path d="M48.9 38.4L48.7 38l-21.3-7.9-0.4 0.1c-5.6 1.7-14.7 14-15.1 25.4C11.8 61 13.6 68.1 22.7 72l-6.6 17.6L9.3 87l-0.8 2.2L23.8 95l0.8-2.2-6.3-2.4 6.6-17.6c2.1 0.7 4.2 1 6.1 1 6.3 0 11.5-3.5 15.1-10.1C51.1 54.8 51.7 42.8 48.9 38.4zM44 62.6c-2.2 4-6.3 8.9-13.1 8.9-2 0-4.2-0.4-6.4-1.3-7-2.6-10.4-7.5-10.2-14.5 0.3-10.3 8.6-21.3 13-23.1L47.1 40C49 43.7 48.6 54.4 44 62.6z" fill="#444444" data-fill-palette-color="quaternary"></path><g fill="#444444" data-fill-palette-color="quaternary"><rect x="28.2" y="20.5" transform="matrix(0.7071 0.7071 -0.7071 0.7071 25.7997 -18.8179)" width="14.7" height="2.4" fill="#444444" data-fill-palette-color="quaternary"></rect></g><g fill="#444444" data-fill-palette-color="quaternary"><rect x="48.8" y="5" width="2.4" height="14.7" fill="#444444" data-fill-palette-color="quaternary"></rect></g><g fill="#444444" data-fill-palette-color="quaternary"><rect x="63.7" y="14.1" transform="matrix(0.7071 0.7071 -0.7071 0.7071 34.1946 -39.6004)" width="2.4" height="14.8" fill="#444444" data-fill-palette-color="quaternary"></rect></g><g fill="#444444" data-fill-palette-color="quaternary"><path d="M74.4 67.5c8.8-3.3 10.3-10.8 7.8-17.5-1.4-3.7-26.2 6.5-25.1 9.4C59.6 66 65.6 70.8 74.4 67.5z" fill="#444444" data-fill-palette-color="quaternary"></path></g><path d="M90.7 87l-6.8 2.5L77.3 72C86.4 68.1 88.2 61 88 55.7c-0.3-11.4-9.5-23.7-15.1-25.4l-0.4-0.1L51.3 38l-0.2 0.3c-2.8 4.4-2.1 16.5 2.8 25.4 3.6 6.6 8.9 10.1 15.1 10.1 0 0 0 0 0 0 1.9 0 4-0.4 6.1-1l6.6 17.6-6.3 2.4 0.8 2.2 15.4-5.7L90.7 87zM69 71.5c-6.7 0-10.8-4.8-13.1-8.9-4.5-8.2-4.9-18.9-3-22.6l19.7-7.3c4.4 1.8 12.7 12.8 13 23.1 0.2 7-3.2 11.8-10.2 14.5C73.2 71 71 71.5 69 71.5L69 71.5z" fill="#444444" data-fill-palette-color="quaternary"></path></g></svg></g></svg></g><path d="M78.355 84.637L91.481 86.075 82.118 77.375C81.04 76.358 80.186 75.712 79.556 75.436V75.436C78.963 75.177 78.487 75.211 78.13 75.541 77.763 75.873 77.392 76.469 77.017 77.328V77.328L75.877 76.829 79.437 68.694 80.577 69.193C80.258 69.922 80.15 70.655 80.254 71.392 80.352 72.127 80.754 72.833 81.459 73.509V73.509L97.306 88.657 96.191 91.205 78.889 89.573 91.528 101.86 90.49 104.232 71.111 102.982C69.981 102.922 69.054 102.914 68.329 102.957 67.601 103.006 67.01 103.138 66.555 103.351 66.098 103.556 65.735 103.838 65.467 104.199 65.192 104.558 64.933 105.015 64.69 105.571V105.571L63.523 105.06 68.258 94.238 69.426 94.749C69.001 95.719 68.802 96.426 68.828 96.872 68.848 97.315 69.067 97.628 69.487 97.812V97.812C69.642 97.879 69.795 97.932 69.948 97.969 70.099 98.013 70.278 98.048 70.488 98.073 70.692 98.096 70.945 98.122 71.248 98.152 71.552 98.182 71.938 98.207 72.407 98.229V98.229L85.703 99.278 75.078 89.098C74.476 89.062 73.972 89.07 73.567 89.121 73.156 89.169 72.798 89.281 72.493 89.456 72.196 89.629 71.934 89.859 71.704 90.149 71.477 90.432 71.232 90.789 70.971 91.219V91.219L69.803 90.708 74.223 80.609 75.39 81.12C75.039 81.923 74.882 82.558 74.921 83.023 74.951 83.493 75.254 83.853 75.828 84.105V84.105C76.112 84.229 76.465 84.332 76.886 84.413 77.306 84.494 77.796 84.569 78.355 84.637ZM104.799 66.759L106.206 66.657C106.898 69.438 106.443 71.996 104.84 74.331V74.331C104.112 75.393 103.283 76.243 102.354 76.881 101.416 77.521 100.432 77.942 99.403 78.143 98.368 78.34 97.313 78.323 96.237 78.092 95.155 77.856 94.1 77.386 93.072 76.68V76.68C92.004 75.948 91.153 75.097 90.517 74.129 89.881 73.161 89.468 72.125 89.277 71.021 89.086 69.917 89.119 68.791 89.375 67.642 89.636 66.488 90.136 65.372 90.876 64.294V64.294C92.128 62.47 93.593 61.39 95.271 61.054 96.944 60.713 98.664 61.15 100.432 62.363V62.363C100.704 62.55 100.842 62.706 100.846 62.832 100.846 62.963 100.711 63.225 100.44 63.62V63.62L94.746 71.917C94.856 72.09 95.116 72.318 95.528 72.601V72.601C97.212 73.757 98.794 74.306 100.272 74.25 101.754 74.187 102.924 73.531 103.782 72.28V72.28C104.278 71.557 104.606 70.728 104.767 69.791 104.937 68.853 104.947 67.842 104.799 66.759ZM93.429 70.743L95.993 67.008C96.466 66.318 96.731 65.85 96.786 65.602 96.846 65.348 96.731 65.122 96.442 64.924V64.924C95.686 64.405 94.919 64.194 94.142 64.29 93.366 64.395 92.755 64.773 92.309 65.424V65.424C91.801 66.163 91.652 67.03 91.861 68.024 92.08 69.016 92.603 69.923 93.429 70.743ZM123.596 46.688L123.69 46.611 117.663 27.967 124.698 22.16 125.49 23.119C124.96 23.557 124.574 23.963 124.332 24.337 124.095 24.717 123.999 25.115 124.045 25.531 124.096 25.953 124.288 26.424 124.622 26.944 124.955 27.464 125.42 28.086 126.017 28.809V28.809L133.736 38.16C134.397 38.961 134.952 39.569 135.401 39.986 135.855 40.398 136.283 40.652 136.686 40.748 137.088 40.844 137.503 40.785 137.931 40.572 138.359 40.35 138.876 40.002 139.482 39.528V39.528L140.28 40.495 131.217 47.977 130.419 47.01C131.004 46.5 131.44 46.053 131.725 45.669 132.016 45.28 132.162 44.884 132.162 44.482 132.167 44.076 132.019 43.626 131.716 43.132 131.419 42.634 130.957 42.006 130.331 41.247V41.247L121.021 29.969 120.896 30.072 127.588 51.38 125.801 52.854 105.929 42.427 105.835 42.504 115.01 53.619C115.671 54.419 116.226 55.028 116.675 55.444 117.128 55.856 117.557 56.111 117.959 56.206 118.362 56.302 118.78 56.242 119.213 56.025 119.636 55.806 120.15 55.46 120.756 54.987V54.987L121.554 55.954 114.137 62.077 113.339 61.11C113.918 60.605 114.356 60.156 114.653 59.762 114.949 59.369 115.1 58.969 115.105 58.563 115.105 58.161 114.957 57.711 114.659 57.213 114.357 56.719 113.892 56.093 113.266 55.334V55.334L105.269 45.647C104.715 44.976 104.221 44.441 103.785 44.04 103.348 43.648 102.932 43.393 102.536 43.274 102.141 43.155 101.734 43.176 101.316 43.337 100.903 43.503 100.423 43.812 99.877 44.263V44.263L99.085 43.303 106.385 37.277ZM146.433 30.927L145.066 28.287C143.875 29.799 143.043 31.058 142.568 32.063 142.097 33.074 142.029 33.902 142.364 34.549V34.549C142.64 35.082 143.006 35.431 143.464 35.596 143.925 35.753 144.377 35.716 144.82 35.487V35.487C145.263 35.257 145.638 34.964 145.947 34.607 146.256 34.25 146.481 33.871 146.623 33.471 146.762 33.065 146.819 32.64 146.795 32.197 146.765 31.757 146.644 31.334 146.433 30.927ZM141.267 30.539L144.308 26.823 143.703 25.655C143.148 24.583 142.555 23.9 141.924 23.604 141.286 23.312 140.569 23.372 139.773 23.784V23.784C139.24 24.06 138.908 24.414 138.775 24.847 138.648 25.277 138.637 25.887 138.742 26.675V26.675C138.813 27.223 138.763 27.705 138.591 28.12 138.422 28.542 138.071 28.891 137.538 29.167V29.167C137.017 29.436 136.537 29.484 136.097 29.309 135.654 29.144 135.284 28.773 134.987 28.199V28.199C134.525 27.307 134.648 26.35 135.358 25.33 136.058 24.307 137.387 23.288 139.345 22.275V22.275C141.416 21.202 143.093 20.812 144.376 21.104 145.65 21.394 146.741 22.416 147.649 24.17V24.17L150.798 30.25C151.613 31.825 152.335 32.449 152.964 32.124V32.124C153.317 31.941 153.577 31.65 153.743 31.253V31.253L154.584 31.843C154.559 32.44 154.344 33.015 153.939 33.566 153.533 34.118 152.989 34.57 152.307 34.924V34.924C151.451 35.367 150.666 35.443 149.953 35.152 149.244 34.866 148.644 34.25 148.154 33.304V33.304L148.019 33.374C147.98 34.617 147.663 35.707 147.071 36.644 146.481 37.588 145.641 38.341 144.551 38.906V38.906C143.384 39.51 142.276 39.666 141.229 39.373 140.187 39.077 139.394 38.403 138.848 37.349V37.349C138.426 36.535 138.393 35.584 138.749 34.496 139.098 33.412 139.938 32.092 141.267 30.539ZM165 29.958L164.603 28.768C165.236 28.557 165.674 28.386 165.914 28.256 166.153 28.12 166.246 27.972 166.193 27.812V27.812C166.154 27.697 165.926 27.449 165.508 27.07 165.084 26.692 164.563 26.269 163.945 25.8V25.8L160.561 23.164 159.56 25.086 159.944 26.238C160.202 27.012 160.438 27.626 160.654 28.08 160.869 28.534 161.095 28.871 161.331 29.091 161.574 29.308 161.843 29.421 162.137 29.43 162.438 29.436 162.796 29.37 163.212 29.232V29.232L163.608 30.421 154.858 33.337 154.461 32.147C155.012 31.943 155.437 31.737 155.738 31.53 156.042 31.315 156.254 31.053 156.371 30.743 156.486 30.428 156.505 30.038 156.429 29.573 156.343 29.104 156.182 28.514 155.946 27.804V27.804L151.758 15.235C151.355 14.026 151.019 13.083 150.751 12.405 150.482 11.726 150.207 11.242 149.926 10.952 149.644 10.662 149.314 10.535 148.934 10.569 148.563 10.607 148.084 10.724 147.495 10.92V10.92L147.131 9.826 153.364 6.491 158.857 22.975 160.799 19.333C161.507 18.024 161.997 17.054 162.27 16.423 162.543 15.792 162.643 15.367 162.571 15.15V15.15C162.513 14.977 162.29 14.916 161.902 14.968 161.514 15.019 160.825 15.209 159.833 15.54V15.54L159.437 14.35 167.535 11.652 167.931 12.842C167.176 13.093 166.557 13.442 166.073 13.887 165.582 14.335 165.107 14.987 164.646 15.844V15.844L162.666 19.499 170.22 25.052C170.885 25.534 171.474 25.821 171.988 25.913 172.502 26.005 173.114 25.932 173.824 25.696V25.696L174.22 26.885ZM187.133 20.612L188.199 21.536C186.719 23.99 184.586 25.474 181.802 25.989V25.989C180.535 26.223 179.348 26.236 178.241 26.029 177.125 25.817 176.132 25.418 175.263 24.831 174.392 24.238 173.659 23.479 173.063 22.553 172.466 21.622 172.054 20.542 171.827 19.316V19.316C171.592 18.043 171.592 16.839 171.829 15.706 172.065 14.572 172.506 13.547 173.153 12.633 173.8 11.718 174.621 10.946 175.615 10.316 176.616 9.686 177.76 9.252 179.046 9.014V9.014C181.221 8.612 183.02 8.887 184.443 9.837 185.866 10.781 186.772 12.307 187.161 14.416V14.416C187.221 14.741 187.208 14.949 187.122 15.04 187.03 15.132 186.748 15.222 186.277 15.309V15.309L176.382 17.137C176.336 17.338 176.359 17.683 176.45 18.174V18.174C176.821 20.183 177.549 21.69 178.633 22.697 179.723 23.702 181.015 24.067 182.507 23.791V23.791C183.368 23.632 184.188 23.278 184.964 22.73 185.748 22.188 186.471 21.482 187.133 20.612ZM176.283 15.376L180.738 14.553C181.56 14.401 182.079 14.258 182.294 14.122 182.515 13.985 182.594 13.744 182.53 13.399V13.399C182.364 12.498 181.972 11.806 181.355 11.323 180.732 10.848 180.033 10.683 179.258 10.826V10.826C178.376 10.989 177.657 11.495 177.101 12.346 176.553 13.201 176.28 14.211 176.283 15.376ZM214.62 19.738L214.741 19.749 223.677 2.312 232.757 3.188 232.638 4.426C231.953 4.36 231.393 4.374 230.957 4.467 230.521 4.567 230.172 4.781 229.91 5.108 229.647 5.442 229.45 5.91 229.317 6.514 229.184 7.117 229.073 7.886 228.983 8.818V8.818L227.819 20.888C227.72 21.922 227.681 22.745 227.703 23.356 227.732 23.969 227.855 24.451 228.072 24.804 228.288 25.157 228.623 25.409 229.076 25.561 229.536 25.707 230.147 25.827 230.91 25.921V25.921L230.79 27.17 219.092 26.042 219.213 24.793C219.987 24.848 220.61 24.84 221.085 24.771 221.565 24.702 221.948 24.525 222.233 24.241 222.524 23.958 222.738 23.535 222.873 22.972 223.016 22.41 223.134 21.639 223.229 20.659V20.659L224.632 6.103 224.471 6.087 214.12 25.877 211.814 25.655 205.153 4.224 205.032 4.213 203.649 18.558C203.549 19.591 203.511 20.414 203.533 21.026 203.562 21.638 203.685 22.121 203.901 22.474 204.118 22.826 204.456 23.079 204.915 23.232 205.369 23.377 205.977 23.497 206.74 23.591V23.591L206.62 24.839 197.046 23.916 197.167 22.668C197.934 22.721 198.561 22.714 199.048 22.646 199.536 22.578 199.925 22.402 200.217 22.118 200.502 21.834 200.715 21.411 200.857 20.849 200.993 20.286 201.108 19.515 201.202 18.535V18.535L202.408 6.032C202.492 5.167 202.521 4.438 202.497 3.846 202.465 3.261 202.352 2.786 202.157 2.422 201.962 2.057 201.659 1.784 201.25 1.603 200.84 1.428 200.283 1.306 199.578 1.238V1.238L199.698 0 209.12 0.909ZM245.72 27.935L246.233 29.249C243.781 30.732 241.203 31.054 238.499 30.214V30.214C237.269 29.831 236.212 29.291 235.327 28.593 234.439 27.886 233.746 27.071 233.249 26.147 232.755 25.216 232.459 24.203 232.362 23.107 232.266 22.004 232.404 20.857 232.774 19.666V19.666C233.158 18.43 233.719 17.365 234.455 16.471 235.192 15.577 236.059 14.876 237.057 14.367 238.056 13.858 239.141 13.557 240.315 13.462 241.494 13.37 242.708 13.518 243.957 13.906V13.906C246.069 14.562 247.534 15.642 248.352 17.146 249.172 18.643 249.263 20.416 248.627 22.463V22.463C248.529 22.779 248.421 22.957 248.302 22.998 248.177 23.036 247.886 22.985 247.429 22.843V22.843L237.819 19.857C237.686 20.013 237.545 20.329 237.397 20.806V20.806C236.791 22.757 236.734 24.43 237.225 25.825 237.723 27.223 238.696 28.146 240.145 28.596V28.596C240.982 28.856 241.872 28.925 242.814 28.801 243.76 28.685 244.729 28.397 245.72 27.935ZM238.551 18.252L242.878 19.596C243.676 19.844 244.202 19.958 244.455 19.938 244.715 19.92 244.897 19.744 245.001 19.409V19.409C245.273 18.533 245.248 17.738 244.927 17.024 244.596 16.314 244.055 15.842 243.301 15.608V15.608C242.445 15.342 241.573 15.456 240.685 15.95 239.802 16.452 239.091 17.219 238.551 18.252ZM256.618 27.762L254.594 31.358C254.164 32.121 253.845 32.731 253.635 33.185 253.431 33.643 253.344 34.031 253.374 34.35 253.41 34.672 253.563 34.955 253.835 35.201 254.101 35.444 254.497 35.736 255.024 36.079V36.079L254.408 37.172 245.807 32.33 246.422 31.237C246.982 31.506 247.447 31.698 247.816 31.813 248.178 31.924 248.505 31.915 248.795 31.784 249.082 31.659 249.366 31.409 249.647 31.033 249.937 30.655 250.276 30.122 250.663 29.435V29.435L252.563 26.059C253.145 25.025 253.617 24.153 253.977 23.444 254.335 22.74 254.55 22.241 254.621 21.949V21.949C254.704 21.678 254.742 21.452 254.736 21.271 254.73 21.09 254.665 20.91 254.541 20.732 254.411 20.55 254.217 20.372 253.96 20.196 253.701 20.011 253.353 19.796 252.919 19.552V19.552L253.44 18.626 259.286 20.548 258.278 23.102 258.437 23.192C259.68 22.77 260.789 22.593 261.764 22.662 262.744 22.734 263.743 23.057 264.759 23.629V23.629C265.958 24.303 266.829 25.072 267.372 25.935 267.913 26.789 268.165 27.716 268.128 28.716V28.716L268.242 28.781C269.321 28.39 270.434 28.235 271.58 28.315 272.732 28.399 273.825 28.732 274.859 29.314V29.314C275.946 29.926 276.817 30.598 277.473 31.331 278.125 32.054 278.537 32.8 278.708 33.569V33.569C278.837 34.192 278.798 34.885 278.592 35.651 278.385 36.417 277.945 37.399 277.27 38.598V38.598L274.908 42.793C274.488 43.539 274.179 44.143 273.982 44.604 273.784 45.065 273.701 45.459 273.733 45.787 273.757 46.117 273.904 46.405 274.176 46.651 274.441 46.894 274.838 47.186 275.364 47.529V47.529L274.749 48.622 266.147 43.78 266.763 42.687C267.313 42.974 267.77 43.165 268.134 43.262 268.5 43.367 268.833 43.353 269.132 43.22 269.431 43.087 269.717 42.834 269.989 42.461 270.261 42.088 270.59 41.557 270.977 40.87V40.87L272.986 37.301C273.519 36.355 273.913 35.524 274.168 34.809 274.43 34.097 274.552 33.474 274.536 32.939 274.526 32.407 274.375 31.947 274.083 31.558 273.789 31.16 273.363 30.804 272.804 30.49V30.49C272.164 30.13 271.553 29.991 270.973 30.074 270.389 30.148 269.824 30.356 269.276 30.697V30.697C268.326 31.285 267.494 32.213 266.78 33.482V33.482L264.756 37.078C264.336 37.824 264.021 38.424 263.811 38.879 263.602 39.333 263.513 39.725 263.546 40.052 263.574 40.386 263.728 40.677 264.005 40.926 264.283 41.175 264.694 41.476 265.238 41.829V41.829L264.623 42.922 255.986 38.06 256.601 36.967C257.167 37.239 257.629 37.43 257.986 37.538 258.343 37.646 258.669 37.636 258.965 37.509 259.264 37.391 259.548 37.14 259.817 36.758 260.096 36.373 260.429 35.837 260.816 35.15V35.15L262.825 31.581C263.357 30.635 263.754 29.806 264.016 29.094 264.271 28.379 264.388 27.752 264.366 27.214 264.35 26.679 264.19 26.214 263.887 25.818 263.586 25.417 263.136 25.048 262.537 24.711V24.711C261.938 24.373 261.359 24.241 260.8 24.313 260.25 24.382 259.71 24.593 259.179 24.944V24.944C258.694 25.243 258.23 25.64 257.789 26.135 257.346 26.62 256.956 27.163 256.618 27.762ZM292.414 42.092V42.092C293.353 42.924 294.095 43.87 294.642 44.931 295.192 45.987 295.538 47.076 295.677 48.2 295.807 49.324 295.712 50.433 295.391 51.527 295.075 52.625 294.51 53.634 293.696 54.552V54.552C292.856 55.501 291.898 56.211 290.823 56.682 289.758 57.152 288.653 57.398 287.508 57.419 286.362 57.431 285.228 57.232 284.104 56.822 282.981 56.412 281.95 55.792 281.012 54.96V54.96C280.093 54.146 279.361 53.214 278.815 52.162 278.279 51.111 277.953 50.02 277.837 48.89 277.721 47.76 277.841 46.633 278.198 45.508 278.551 44.388 279.148 43.354 279.988 42.405V42.405C280.802 41.487 281.735 40.796 282.786 40.331 283.833 39.871 284.92 39.636 286.046 39.625 287.168 39.62 288.279 39.825 289.379 40.241 290.484 40.661 291.496 41.278 292.414 42.092ZM291.207 43.455V43.455C290.742 43.043 290.209 42.787 289.606 42.685 289.002 42.573 288.369 42.616 287.708 42.813 287.051 43.006 286.374 43.348 285.678 43.839 284.981 44.32 284.301 44.934 283.639 45.681V45.681C282.951 46.458 282.405 47.227 282.002 47.987 281.594 48.742 281.334 49.458 281.222 50.133 281.105 50.813 281.131 51.445 281.3 52.027 281.474 52.604 281.8 53.105 282.279 53.529V53.529C282.764 53.959 283.31 54.231 283.919 54.347 284.532 54.459 285.175 54.415 285.846 54.217 286.522 54.023 287.215 53.683 287.926 53.196 288.637 52.709 289.33 52.084 290.005 51.322V51.322C290.667 50.575 291.19 49.827 291.575 49.078 291.955 48.334 292.201 47.615 292.311 46.92 292.432 46.225 292.398 45.582 292.209 44.992 292.025 44.396 291.691 43.884 291.207 43.455ZM298.032 62.958L296.885 63.92C296.26 64.444 295.793 64.884 295.484 65.24 295.17 65.6 294.992 65.948 294.948 66.284 294.904 66.62 294.994 66.98 295.219 67.363 295.449 67.742 295.798 68.211 296.266 68.769V68.769L295.305 69.575 288.598 61.578 289.559 60.772C289.989 61.221 290.356 61.565 290.66 61.802 290.965 62.039 291.274 62.145 291.587 62.12 291.9 62.104 292.251 61.968 292.643 61.71 293.039 61.448 293.539 61.064 294.144 60.557V60.557L297.065 58.107C298.057 57.275 298.825 56.586 299.371 56.04 299.921 55.5 300.289 55.015 300.475 54.587 300.661 54.158 300.682 53.753 300.538 53.372 300.395 52.991 300.121 52.56 299.719 52.08V52.08L300.555 51.378 305.463 55.419 303.029 58.12 303.107 58.213C304.318 57.937 305.464 57.939 306.545 58.22 307.63 58.507 308.502 59.043 309.161 59.828V59.828C309.668 60.433 309.929 61.054 309.945 61.692 309.965 62.335 309.745 62.849 309.286 63.235V63.235C308.774 63.664 308.217 63.876 307.615 63.871 307.016 63.871 306.503 63.615 306.074 63.104V63.104C305.874 62.866 305.741 62.613 305.674 62.344 305.612 62.07 305.577 61.809 305.57 61.559 305.559 61.304 305.542 61.059 305.52 60.822 305.493 60.581 305.415 60.383 305.285 60.228V60.228C305.03 59.923 304.588 59.8 303.961 59.86 303.338 59.925 302.617 60.151 301.798 60.539V60.539C301.209 60.813 300.582 61.162 299.918 61.587 299.255 62.003 298.626 62.46 298.032 62.958ZM315.913 69.324L306.176 75.905C305.484 76.373 304.947 76.772 304.568 77.101 304.192 77.437 303.944 77.755 303.822 78.057 303.699 78.368 303.701 78.697 303.829 79.042 303.947 79.385 304.167 79.814 304.49 80.328V80.328L303.451 81.03 297.941 72.877 298.98 72.175C299.322 72.644 299.642 72.997 299.94 73.235 300.239 73.472 300.552 73.603 300.877 73.627 301.204 73.642 301.582 73.55 302.009 73.351 302.441 73.148 302.959 72.842 303.562 72.435V72.435L306.746 70.283C307.746 69.607 308.557 69.03 309.179 68.553 309.804 68.082 310.22 67.74 310.426 67.527V67.527C310.805 67.149 310.958 66.761 310.884 66.363 310.82 65.967 310.52 65.372 309.984 64.579V64.579L310.863 63.985ZM318.83 61.811V61.811C319.4 61.425 320.008 61.295 320.654 61.42 321.309 61.547 321.823 61.887 322.197 62.44V62.44C322.582 63.01 322.71 63.619 322.579 64.269 322.458 64.921 322.112 65.439 321.543 65.824V65.824C320.99 66.198 320.385 66.321 319.73 66.195 319.084 66.07 318.569 65.722 318.184 65.153V65.153C317.81 64.6 317.683 63.997 317.805 63.346 317.935 62.696 318.277 62.184 318.83 61.811ZM314.194 93.019L313.625 94.31C310.844 93.62 308.796 92.021 307.483 89.512V89.512C306.885 88.372 306.522 87.241 306.392 86.122 306.265 84.993 306.354 83.927 306.658 82.923 306.968 81.916 307.476 80.991 308.184 80.149 308.898 79.303 309.808 78.591 310.913 78.012V78.012C312.06 77.412 313.209 77.057 314.362 76.948 315.515 76.839 316.625 76.958 317.69 77.306 318.755 77.654 319.735 78.21 320.63 78.974 321.528 79.744 322.28 80.709 322.887 81.868V81.868C323.913 83.827 324.182 85.627 323.694 87.267 323.212 88.905 322.021 90.221 320.122 91.216V91.216C319.829 91.369 319.627 91.418 319.514 91.363 319.398 91.302 319.23 91.059 319.007 90.635V90.635L314.339 81.721C314.134 81.736 313.811 81.86 313.369 82.092V82.092C311.559 83.039 310.334 84.18 309.692 85.513 309.054 86.852 309.086 88.193 309.79 89.537V89.537C310.197 90.313 310.777 90.992 311.529 91.572 312.279 92.161 313.167 92.643 314.194 93.019ZM315.992 81.106L318.094 85.12C318.482 85.86 318.772 86.313 318.966 86.478 319.162 86.65 319.415 86.654 319.726 86.491V86.491C320.538 86.066 321.084 85.487 321.362 84.755 321.632 84.02 321.584 83.303 321.218 82.605V82.605C320.802 81.81 320.106 81.273 319.129 80.993 318.15 80.722 317.105 80.759 315.992 81.106ZM313.312 98.759L312.049 98.495 311.711 97.585 317.039 95.606 317.497 96.838C316.216 97.688 315.369 98.546 314.957 99.411 314.545 100.276 314.523 101.205 314.891 102.197V102.197C315.161 102.924 315.522 103.43 315.973 103.716 316.427 104.007 316.916 104.056 317.44 103.861V103.861C317.99 103.657 318.433 103.212 318.768 102.527 319.099 101.85 319.356 100.855 319.537 99.544V99.544C319.788 97.76 320.189 96.4 320.74 95.461 321.291 94.523 322.065 93.869 323.064 93.498V93.498C323.709 93.259 324.355 93.159 325.002 93.199 325.648 93.232 326.255 93.385 326.823 93.655 327.389 93.92 327.891 94.305 328.331 94.811 328.777 95.314 329.126 95.907 329.38 96.59V96.59C329.605 97.196 329.74 97.83 329.783 98.49 329.827 99.149 329.777 99.761 329.634 100.325V100.325L330.533 100.595 330.815 101.354 326.387 102.998 325.965 101.86C326.91 100.999 327.541 100.236 327.855 99.572 328.163 98.911 328.191 98.24 327.937 97.557V97.557C327.735 97.013 327.426 96.636 327.009 96.424 326.599 96.209 326.15 96.192 325.664 96.373V96.373C325.114 96.577 324.683 97.007 324.373 97.662 324.065 98.323 323.823 99.319 323.648 100.649V100.649C323.51 101.593 323.339 102.422 323.137 103.137 322.938 103.858 322.695 104.474 322.409 104.982 322.121 105.485 321.777 105.904 321.377 106.24 320.979 106.582 320.518 106.85 319.993 107.045V107.045C319.31 107.299 318.646 107.398 318 107.343 317.362 107.292 316.761 107.105 316.195 106.783 315.63 106.461 315.117 106.011 314.658 105.434 314.202 104.862 313.824 104.175 313.526 103.373V103.373C313.214 102.532 313.038 101.709 312.998 100.904 312.951 100.102 313.056 99.387 313.312 98.759ZM97.371 194.472L87.408 203.137 100.152 202.164C101.63 202.061 102.685 201.872 103.315 201.597V201.597C103.908 201.337 104.204 200.964 104.205 200.478 104.209 199.983 104.024 199.307 103.648 198.448V198.448L104.787 197.949 108.347 206.084 107.208 206.583C106.889 205.854 106.423 205.278 105.811 204.854 105.205 204.427 104.414 204.243 103.439 204.302V204.302L81.558 205.664 80.443 203.116 93.383 191.514 75.781 192.461 74.743 190.089 88.81 176.702C89.621 175.913 90.256 175.238 90.717 174.676 91.174 174.107 91.479 173.584 91.63 173.106 91.79 172.631 91.829 172.172 91.746 171.73 91.669 171.286 91.509 170.785 91.266 170.229V170.229L92.433 169.719 97.169 180.54 96.001 181.051C95.577 180.081 95.192 179.455 94.848 179.171 94.509 178.885 94.13 178.834 93.71 179.018V179.018C93.555 179.086 93.412 179.163 93.281 179.25 93.147 179.33 93 179.439 92.839 179.576 92.684 179.71 92.493 179.878 92.265 180.081 92.037 180.284 91.756 180.55 91.422 180.88V180.88L81.63 189.935 96.317 189.038C96.752 188.619 97.088 188.244 97.326 187.912 97.569 187.577 97.73 187.238 97.808 186.895 97.883 186.561 97.891 186.211 97.835 185.846 97.781 185.487 97.684 185.065 97.546 184.581V184.581L98.714 184.07 103.133 194.169 101.966 194.68C101.614 193.877 101.254 193.332 100.886 193.044 100.52 192.748 100.05 192.725 99.476 192.977V192.977C99.192 193.101 98.877 193.29 98.532 193.544 98.187 193.798 97.8 194.108 97.371 194.472ZM97.748 225.511L97.337 226.86C94.493 226.505 92.27 225.161 90.668 222.826V222.826C89.939 221.764 89.444 220.685 89.182 219.589 88.922 218.484 88.884 217.414 89.066 216.382 89.254 215.345 89.65 214.366 90.252 213.445 90.861 212.521 91.679 211.706 92.708 211V211C93.775 210.267 94.875 209.778 96.007 209.533 97.138 209.288 98.254 209.275 99.353 209.494 100.452 209.713 101.491 210.148 102.47 210.801 103.453 211.459 104.315 212.327 105.055 213.406V213.406C106.306 215.229 106.787 216.984 106.498 218.671 106.214 220.355 105.188 221.803 103.42 223.016V223.016C103.148 223.203 102.952 223.276 102.834 223.234 102.712 223.187 102.515 222.967 102.244 222.572V222.572L96.55 214.275C96.349 214.315 96.042 214.476 95.631 214.759V214.759C93.947 215.915 92.865 217.192 92.386 218.592 91.912 219.997 92.103 221.325 92.962 222.576V222.576C93.458 223.299 94.114 223.904 94.93 224.39 95.745 224.886 96.684 225.259 97.748 225.511ZM98.119 213.468L100.682 217.204C101.156 217.893 101.498 218.309 101.709 218.45 101.924 218.597 102.176 218.571 102.465 218.372V218.372C103.221 217.853 103.694 217.214 103.884 216.454 104.065 215.692 103.932 214.986 103.485 214.336V214.336C102.978 213.596 102.223 213.146 101.22 212.983 100.216 212.83 99.182 212.992 98.119 213.468ZM120.495 244.499L120.589 244.576 137.753 235.126 144.788 240.934 143.996 241.893C143.466 241.455 142.994 241.153 142.581 240.987 142.163 240.826 141.754 240.807 141.354 240.932 140.95 241.061 140.524 241.339 140.076 241.765 139.628 242.191 139.106 242.765 138.509 243.488V243.488L130.79 252.839C130.129 253.64 129.636 254.3 129.312 254.82 128.994 255.343 128.825 255.812 128.807 256.226 128.79 256.639 128.926 257.036 129.216 257.415 129.515 257.794 129.955 258.235 130.535 258.74V258.74L129.737 259.707 120.674 252.226 121.472 251.259C122.083 251.737 122.604 252.08 123.036 252.287 123.473 252.5 123.889 252.568 124.284 252.491 124.684 252.42 125.098 252.189 125.525 251.798 125.957 251.412 126.487 250.839 127.114 250.08V250.08L136.424 238.802 136.299 238.699 116.645 249.306 114.859 247.832 121.332 226.344 121.238 226.267 112.064 237.381C111.403 238.182 110.91 238.842 110.586 239.361 110.268 239.885 110.099 240.354 110.081 240.767 110.063 241.181 110.202 241.579 110.497 241.963 110.792 242.337 111.229 242.777 111.809 243.282V243.282L111.01 244.249 103.593 238.126 104.392 237.159C104.997 237.632 105.521 237.978 105.963 238.194 106.405 238.41 106.827 238.483 107.227 238.411 107.622 238.335 108.035 238.104 108.468 237.717 108.895 237.327 109.422 236.752 110.049 235.993V235.993L118.045 226.306C118.599 225.635 119.031 225.048 119.342 224.544 119.644 224.041 119.816 223.584 119.858 223.173 119.9 222.762 119.802 222.367 119.565 221.987 119.323 221.613 118.929 221.2 118.383 220.75V220.75L119.175 219.79 126.475 225.816ZM144.277 260.667L145.644 258.027C143.722 257.927 142.213 257.974 141.119 258.166 140.021 258.365 139.305 258.787 138.971 259.434V259.434C138.695 259.967 138.621 260.468 138.75 260.937 138.888 261.403 139.179 261.751 139.622 261.981V261.981C140.065 262.21 140.521 262.348 140.991 262.394 141.461 262.439 141.9 262.405 142.309 262.29 142.721 262.169 143.101 261.971 143.448 261.696 143.79 261.417 144.066 261.074 144.277 260.667ZM141.612 256.224L146.402 256.563 147.007 255.395C147.562 254.324 147.778 253.445 147.655 252.758 147.526 252.069 147.063 251.518 146.267 251.106V251.106C145.734 250.83 145.253 250.763 144.822 250.904 144.398 251.049 143.894 251.392 143.311 251.932V251.932C142.904 252.307 142.482 252.543 142.043 252.643 141.601 252.748 141.114 252.663 140.581 252.387V252.387C140.06 252.117 139.744 251.752 139.633 251.292 139.513 250.835 139.602 250.319 139.899 249.745V249.745C140.361 248.852 141.214 248.402 142.456 248.392 143.696 248.373 145.294 248.871 147.252 249.885V249.885C149.324 250.958 150.61 252.102 151.112 253.318 151.61 254.526 151.405 256.006 150.497 257.761V257.761L147.349 263.841C146.533 265.415 146.44 266.365 147.068 266.691V266.691C147.422 266.874 147.809 266.919 148.229 266.825V266.825L148.233 267.852C147.73 268.176 147.137 268.332 146.453 268.32 145.769 268.307 145.085 268.124 144.403 267.77V267.77C143.546 267.327 143.032 266.73 142.858 265.98 142.682 265.236 142.839 264.39 143.328 263.445V263.445L143.194 263.375C142.156 264.06 141.083 264.43 139.975 264.487 138.865 264.55 137.765 264.299 136.675 263.735V263.735C135.508 263.13 134.741 262.316 134.376 261.291 134.016 260.27 134.109 259.232 134.655 258.179V258.179C135.077 257.364 135.834 256.789 136.928 256.451 138.015 256.111 139.577 256.035 141.612 256.224ZM159.764 273.185L160.161 271.996C160.794 272.207 161.246 272.332 161.517 272.373 161.79 272.407 161.953 272.344 162.006 272.184V272.184C162.044 272.069 162.01 271.734 161.903 271.18 161.79 270.623 161.627 269.972 161.414 269.226V269.226L160.288 265.087 158.334 266.025 157.95 267.176C157.692 267.95 157.513 268.583 157.413 269.076 157.313 269.568 157.292 269.974 157.349 270.291 157.413 270.611 157.56 270.863 157.791 271.046 158.027 271.231 158.354 271.393 158.769 271.532V271.532L158.373 272.722 149.622 269.806 150.019 268.616C150.582 268.783 151.045 268.873 151.41 268.888 151.783 268.899 152.109 268.815 152.389 268.638 152.67 268.455 152.919 268.154 153.137 267.736 153.35 267.31 153.575 266.742 153.812 266.032V266.032L158 253.462C158.402 252.254 158.7 251.297 158.892 250.594 159.083 249.89 159.154 249.338 159.102 248.937 159.051 248.536 158.864 248.236 158.539 248.035 158.22 247.843 157.765 247.649 157.177 247.453V247.453L157.541 246.359 164.529 247.43 159.037 263.914 162.775 262.164C164.127 261.541 165.101 261.059 165.698 260.718 166.295 260.377 166.63 260.098 166.703 259.88V259.88C166.76 259.707 166.618 259.525 166.277 259.333 165.936 259.141 165.27 258.88 164.278 258.55V258.55L164.675 257.36 172.773 260.058 172.376 261.248C171.621 260.997 170.917 260.904 170.262 260.97 169.601 261.034 168.829 261.271 167.947 261.681V261.681L164.17 263.418 166.883 272.391C167.126 273.176 167.426 273.759 167.782 274.141 168.138 274.522 168.671 274.831 169.381 275.068V275.068L168.985 276.258ZM185.58 275.228L186.245 276.472C183.985 278.235 181.464 278.859 178.679 278.345V278.345C177.413 278.111 176.299 277.699 175.338 277.11 174.372 276.514 173.588 275.786 172.985 274.927 172.384 274.062 171.97 273.091 171.744 272.014 171.519 270.93 171.52 269.775 171.747 268.548V268.548C171.982 267.275 172.412 266.152 173.038 265.177 173.664 264.202 174.442 263.403 175.373 262.78 176.304 262.157 177.347 261.729 178.501 261.496 179.661 261.265 180.884 261.268 182.17 261.506V261.506C184.345 261.908 185.927 262.807 186.917 264.203 187.908 265.593 188.209 267.342 187.82 269.45V269.45C187.76 269.775 187.673 269.965 187.56 270.02 187.441 270.073 187.145 270.056 186.675 269.969V269.969L176.779 268.141C176.665 268.312 176.563 268.643 176.473 269.133V269.133C176.101 271.142 176.242 272.81 176.895 274.138 177.555 275.466 178.631 276.268 180.122 276.544V276.544C180.984 276.703 181.876 276.666 182.797 276.431 183.723 276.205 184.651 275.804 185.58 275.228ZM177.316 266.461L181.771 267.284C182.593 267.436 183.129 267.487 183.378 267.437 183.634 267.388 183.794 267.192 183.858 266.847V266.847C184.024 265.945 183.906 265.159 183.502 264.488 183.09 263.822 182.496 263.417 181.72 263.274V263.274C180.839 263.111 179.986 263.327 179.163 263.923 178.345 264.526 177.73 265.372 177.316 266.461ZM215.088 272.541L215.208 272.529 220.648 253.706 229.728 252.83 229.848 254.069C229.163 254.135 228.616 254.255 228.206 254.43 227.797 254.612 227.495 254.888 227.3 255.259 227.106 255.637 227.002 256.135 226.987 256.752 226.972 257.37 227.01 258.146 227.1 259.078V259.078L228.263 271.149C228.363 272.182 228.482 272.997 228.621 273.593 228.767 274.189 228.979 274.639 229.259 274.944 229.539 275.249 229.916 275.433 230.39 275.495 230.869 275.551 231.492 275.552 232.259 275.498V275.498L232.38 276.746 220.682 277.874 220.562 276.626C221.332 276.531 221.943 276.405 222.395 276.246 222.853 276.087 223.195 275.84 223.421 275.507 223.653 275.173 223.781 274.717 223.807 274.139 223.839 273.56 223.808 272.78 223.714 271.801V271.801L222.31 257.244 222.149 257.26 215.769 278.663 213.464 278.885 202.831 259.122 202.71 259.134 204.093 273.479C204.193 274.513 204.312 275.328 204.451 275.924 204.596 276.519 204.809 276.97 205.089 277.275 205.369 277.579 205.749 277.763 206.229 277.825 206.702 277.881 207.322 277.882 208.089 277.829V277.829L208.209 279.077 198.636 280 198.516 278.752C199.279 278.658 199.893 278.531 200.358 278.371 200.824 278.211 201.173 277.964 201.405 277.63 201.63 277.296 201.759 276.84 201.791 276.262 201.816 275.683 201.782 274.904 201.687 273.924V273.924L200.482 261.422C200.398 260.556 200.288 259.835 200.151 259.259 200.009 258.69 199.806 258.246 199.545 257.925 199.284 257.605 198.935 257.395 198.499 257.295 198.063 257.201 197.493 257.188 196.788 257.256V257.256L196.669 256.018 206.091 255.11ZM248.257 267.662L249.425 268.454C248.245 271.065 246.303 272.791 243.599 273.632V273.632C242.369 274.014 241.192 274.168 240.068 274.093 238.935 274.015 237.902 273.736 236.969 273.256 236.034 272.77 235.216 272.102 234.515 271.254 233.812 270.4 233.275 269.377 232.905 268.186V268.186C232.521 266.949 232.379 265.754 232.479 264.601 232.58 263.447 232.897 262.377 233.431 261.392 233.965 260.408 234.689 259.544 235.602 258.801 236.522 258.057 237.606 257.49 238.855 257.102V257.102C240.967 256.446 242.786 256.506 244.312 257.281 245.836 258.05 246.916 259.458 247.552 261.506V261.506C247.65 261.821 247.662 262.03 247.587 262.13 247.506 262.233 247.237 262.356 246.78 262.498V262.498L237.17 265.484C237.149 265.688 237.212 266.028 237.36 266.505V266.505C237.966 268.456 238.867 269.867 240.063 270.738 241.265 271.607 242.59 271.816 244.039 271.366V271.366C244.876 271.106 245.648 270.658 246.354 270.022 247.068 269.391 247.703 268.604 248.257 267.662ZM236.863 263.747L241.19 262.402C241.989 262.154 242.486 261.95 242.684 261.79 242.888 261.628 242.937 261.379 242.833 261.045V261.045C242.561 260.169 242.09 259.528 241.421 259.122 240.746 258.724 240.032 258.642 239.279 258.877V258.877C238.423 259.143 237.769 259.731 237.317 260.64 236.874 261.555 236.723 262.59 236.863 263.747ZM255.634 257.92L257.658 261.516C258.088 262.28 258.443 262.869 258.723 263.284 259.009 263.696 259.296 263.971 259.583 264.111 259.877 264.248 260.199 264.264 260.55 264.159 260.896 264.057 261.351 263.87 261.918 263.598V263.598L262.533 264.691 253.931 269.533 253.316 268.44C253.837 268.1 254.242 267.803 254.531 267.547 254.814 267.295 254.976 267.011 255.014 266.695 255.057 266.385 254.99 266.012 254.815 265.577 254.642 265.133 254.362 264.567 253.975 263.879V263.879L252.075 260.504C251.493 259.47 250.992 258.614 250.572 257.938 250.156 257.267 249.842 256.825 249.629 256.612V256.612C249.44 256.401 249.267 256.251 249.109 256.162 248.95 256.073 248.763 256.035 248.546 256.049 248.324 256.066 248.071 256.139 247.787 256.268 247.494 256.394 247.131 256.579 246.696 256.824V256.824L246.175 255.898 250.851 251.897 252.512 254.084 252.67 253.995C252.954 252.713 253.379 251.673 253.943 250.875 254.514 250.075 255.307 249.388 256.324 248.816V248.816C257.522 248.141 258.632 247.795 259.651 247.779 260.661 247.759 261.585 248.025 262.421 248.576V248.576L262.535 248.511C262.761 247.386 263.205 246.354 263.869 245.416 264.538 244.475 265.39 243.713 266.424 243.131V243.131C267.511 242.519 268.537 242.123 269.504 241.943 270.461 241.76 271.312 241.795 272.058 242.048V242.048C272.657 242.26 273.23 242.653 273.778 243.227 274.325 243.801 274.936 244.687 275.611 245.886V245.886L277.972 250.081C278.393 250.827 278.748 251.404 279.04 251.812 279.332 252.221 279.626 252.496 279.923 252.639 280.217 252.79 280.54 252.814 280.891 252.709 281.236 252.607 281.692 252.42 282.258 252.148V252.148L282.873 253.241 274.272 258.083 273.657 256.99C274.187 256.668 274.588 256.377 274.859 256.116 275.139 255.858 275.3 255.566 275.341 255.241 275.383 254.916 275.314 254.54 275.137 254.114 274.959 253.688 274.676 253.132 274.289 252.444V252.444L272.28 248.875C271.748 247.929 271.242 247.161 270.763 246.572 270.29 245.979 269.821 245.551 269.355 245.287 268.895 245.02 268.424 244.91 267.94 244.958 267.447 245.003 266.921 245.183 266.363 245.497V245.497C265.723 245.858 265.288 246.308 265.058 246.848 264.818 247.385 264.702 247.976 264.71 248.622V248.622C264.719 249.738 265.081 250.931 265.796 252.2V252.2L267.82 255.796C268.24 256.542 268.59 257.122 268.87 257.537 269.15 257.952 269.438 258.231 269.735 258.373 270.035 258.522 270.364 258.542 270.721 258.434 271.078 258.326 271.548 258.13 272.132 257.848V257.848L272.747 258.941 264.11 263.803 263.495 262.71C264.022 262.367 264.424 262.071 264.701 261.822 264.979 261.573 265.14 261.289 265.185 260.97 265.239 260.653 265.172 260.28 264.985 259.852 264.8 259.414 264.515 258.852 264.128 258.164V258.164L262.119 254.595C261.586 253.649 261.083 252.88 260.611 252.287 260.132 251.698 259.657 251.273 259.185 251.012 258.719 250.748 258.239 250.643 257.743 250.698 257.244 250.747 256.695 250.94 256.096 251.277V251.277C255.497 251.614 255.083 252.041 254.855 252.556 254.629 253.062 254.529 253.633 254.554 254.269V254.269C254.558 254.839 254.657 255.441 254.851 256.075 255.036 256.706 255.297 257.321 255.634 257.92ZM281.009 232.467V232.467C281.948 231.636 282.976 231.012 284.095 230.597 285.21 230.178 286.333 229.966 287.465 229.963 288.597 229.969 289.686 230.197 290.734 230.647 291.786 231.093 292.719 231.775 293.533 232.693V232.693C294.374 233.642 294.963 234.678 295.301 235.802 295.64 236.916 295.751 238.043 295.634 239.182 295.508 240.321 295.174 241.423 294.632 242.489 294.09 243.555 293.35 244.503 292.412 245.335V245.335C291.493 246.149 290.479 246.764 289.37 247.179 288.261 247.585 287.139 247.777 286.004 247.757 284.868 247.736 283.764 247.48 282.69 246.991 281.621 246.506 280.666 245.789 279.825 244.84V244.84C279.011 243.922 278.437 242.913 278.102 241.813 277.772 240.719 277.669 239.611 277.794 238.492 277.923 237.377 278.261 236.299 278.806 235.257 279.356 234.211 280.091 233.281 281.009 232.467ZM282.217 233.83V233.83C281.752 234.241 281.433 234.74 281.259 235.327 281.076 235.913 281.042 236.546 281.159 237.226 281.271 237.902 281.529 238.615 281.932 239.365 282.327 240.115 282.855 240.863 283.516 241.61V241.61C284.205 242.387 284.902 243.021 285.608 243.513 286.309 244.009 286.988 244.353 287.645 244.546 288.306 244.743 288.936 244.793 289.534 244.696 290.128 244.593 290.665 244.329 291.144 243.905V243.905C291.628 243.475 291.965 242.965 292.153 242.375 292.337 241.78 292.371 241.137 292.255 240.447 292.144 239.752 291.89 239.023 291.492 238.259 291.094 237.494 290.557 236.731 289.882 235.969V235.969C289.22 235.222 288.541 234.613 287.843 234.141 287.15 233.674 286.466 233.344 285.79 233.15 285.114 232.947 284.472 232.903 283.863 233.019 283.25 233.13 282.701 233.401 282.217 233.83ZM301.005 226.965L302.152 227.927C302.777 228.451 303.291 228.834 303.695 229.077 304.105 229.323 304.478 229.439 304.817 229.423 305.155 229.408 305.494 229.256 305.832 228.968 306.166 228.676 306.566 228.25 307.034 227.693V227.693L307.995 228.498 301.288 236.495 300.327 235.689C300.695 235.188 300.969 234.767 301.149 234.426 301.33 234.084 301.381 233.762 301.301 233.457 301.232 233.152 301.036 232.83 300.714 232.49 300.387 232.145 299.921 231.719 299.317 231.212V231.212L296.396 228.762C295.404 227.93 294.592 227.293 293.96 226.851 293.332 226.404 292.79 226.126 292.336 226.017 291.881 225.909 291.479 225.958 291.128 226.166 290.778 226.374 290.402 226.718 289.999 227.198V227.198L289.162 226.497 292.287 220.96 295.371 222.887 295.449 222.794C294.965 221.649 294.768 220.52 294.857 219.407 294.95 218.288 295.326 217.336 295.985 216.551V216.551C296.492 215.947 297.058 215.581 297.683 215.455 298.313 215.323 298.858 215.45 299.318 215.835V215.835C299.829 216.264 300.135 216.776 300.235 217.37 300.339 217.959 300.177 218.509 299.748 219.021V219.021C299.549 219.259 299.322 219.434 299.069 219.547 298.811 219.656 298.559 219.735 298.315 219.786 298.066 219.841 297.827 219.9 297.598 219.963 297.365 220.032 297.183 220.143 297.053 220.298V220.298C296.797 220.603 296.754 221.059 296.922 221.666 297.094 222.269 297.443 222.939 297.967 223.678V223.678C298.339 224.21 298.792 224.766 299.326 225.346 299.851 225.927 300.411 226.467 301.005 226.965ZM301.665 208.476L311.402 215.057C312.094 215.525 312.664 215.874 313.112 216.103 313.563 216.327 313.951 216.438 314.277 216.439 314.611 216.437 314.915 216.313 315.188 216.066 315.462 215.828 315.778 215.464 316.134 214.972V214.972L317.173 215.674 311.663 223.827 310.624 223.125C310.932 222.633 311.14 222.205 311.249 221.839 311.358 221.473 311.363 221.134 311.264 220.823 311.156 220.514 310.93 220.199 310.586 219.877 310.236 219.551 309.76 219.184 309.157 218.776V218.776L305.973 216.624C304.973 215.949 304.135 215.411 303.461 215.012 302.79 214.608 302.318 214.35 302.044 214.238V214.238C301.551 214.027 301.134 214.03 300.793 214.246 300.449 214.454 300.009 214.954 299.473 215.747V215.747L298.593 215.153ZM293.606 208.571V208.571C293.036 208.186 292.689 207.671 292.564 207.025 292.437 206.369 292.56 205.765 292.934 205.212V205.212C293.319 204.642 293.838 204.297 294.489 204.176 295.139 204.045 295.749 204.172 296.318 204.558V204.558C296.872 204.931 297.211 205.446 297.338 206.101 297.463 206.747 297.333 207.355 296.948 207.925V207.925C296.574 208.478 296.062 208.82 295.413 208.95 294.761 209.071 294.159 208.945 293.606 208.571ZM321.77 198.379L323.155 198.111C324.172 200.79 324.024 203.384 322.71 205.892V205.892C322.113 207.033 321.391 207.976 320.544 208.72 319.689 209.467 318.762 210.001 317.764 210.323 316.76 210.642 315.71 210.75 314.614 210.648 313.512 210.543 312.409 210.201 311.304 209.623V209.623C310.157 209.022 309.21 208.279 308.464 207.394 307.718 206.508 307.184 205.528 306.864 204.455 306.543 203.381 306.442 202.259 306.56 201.088 306.682 199.911 307.046 198.743 307.653 197.585V197.585C308.679 195.625 310.005 194.379 311.632 193.846 313.252 193.309 315.012 193.538 316.911 194.533V194.533C317.204 194.686 317.36 194.825 317.379 194.949 317.394 195.079 317.291 195.356 317.069 195.78V195.78L312.401 204.694C312.53 204.854 312.816 205.049 313.258 205.281V205.281C315.068 206.228 316.703 206.586 318.164 206.354 319.628 206.116 320.712 205.325 321.416 203.982V203.982C321.823 203.205 322.05 202.342 322.098 201.393 322.155 200.441 322.046 199.437 321.77 198.379ZM310.954 203.686L313.056 199.672C313.444 198.931 313.651 198.435 313.676 198.182 313.705 197.923 313.565 197.712 313.254 197.549V197.549C312.442 197.124 311.655 197.005 310.895 197.193 310.137 197.39 309.575 197.838 309.209 198.537V198.537C308.793 199.331 308.748 200.209 309.074 201.171 309.409 202.131 310.035 202.969 310.954 203.686ZM326.791 193.676L327.575 194.701 327.237 195.611 321.909 193.633 322.367 192.4C323.892 192.593 325.093 192.496 325.97 192.109 326.847 191.723 327.47 191.034 327.838 190.041V190.041C328.108 189.315 328.166 188.696 328.01 188.185 327.857 187.668 327.518 187.312 326.994 187.117V187.117C326.444 186.913 325.818 186.961 325.117 187.261 324.424 187.558 323.581 188.144 322.587 189.019V189.019C321.232 190.206 320.041 190.975 319.011 191.327 317.982 191.678 316.967 191.668 315.969 191.297V191.297C315.324 191.058 314.769 190.711 314.305 190.258 313.838 189.812 313.478 189.3 313.224 188.724 312.968 188.155 312.839 187.535 312.836 186.865 312.826 186.192 312.949 185.515 313.202 184.832V184.832C313.427 184.226 313.739 183.658 314.137 183.13 314.534 182.601 314.971 182.17 315.448 181.836V181.836L314.943 181.045 315.225 180.286 319.652 181.931 319.23 183.068C317.951 183.104 316.976 183.27 316.304 183.568 315.639 183.867 315.18 184.358 314.926 185.041V185.041C314.724 185.585 314.712 186.073 314.889 186.505 315.061 186.936 315.389 187.241 315.876 187.422V187.422C316.426 187.626 317.032 187.582 317.695 187.288 318.36 186.989 319.193 186.392 320.194 185.498V185.498C320.915 184.874 321.585 184.357 322.205 183.947 322.827 183.53 323.412 183.223 323.961 183.024 324.507 182.831 325.042 182.738 325.564 182.745 326.089 182.746 326.613 182.844 327.138 183.039V183.039C327.821 183.292 328.389 183.65 328.842 184.114 329.292 184.569 329.626 185.103 329.844 185.716 330.062 186.329 330.157 187.004 330.128 187.741 330.101 188.472 329.938 189.239 329.64 190.042V190.042C329.328 190.882 328.924 191.621 328.429 192.257 327.94 192.895 327.394 193.368 326.791 193.676ZM71.19 143.715C71.19 142.074 72.52 140.743 74.162 140.743 75.803 140.743 77.134 142.074 77.134 143.715 77.134 145.356 75.803 146.687 74.162 146.687 72.52 146.687 71.19 145.356 71.19 143.715ZM326.054 143.715C326.054 142.074 327.384 140.743 329.026 140.743 330.667 140.743 331.997 142.074 331.997 143.715 331.997 145.356 330.667 146.687 329.026 146.687 327.384 146.687 326.054 145.356 326.054 143.715Z" fill="#000000" data-fill-palette-color="primary"></path></svg></g></svg></g></svg></g></svg></g><defs></defs></svg><rect width="395.52" height="280" fill="none" stroke="none" visibility="hidden"></rect></g></svg></g></svg>