<svg xmlns="http://www.w3.org/2000/svg" xmlns:xlink="http://www.w3.org/1999/xlink" viewBox="0 0 65.37821265159775 95.481" height="95.481" width="65.37821265159775" data-background-color="#ffffff" preserveAspectRatio="xMidYMid meet" id="tight-bounds"><g><svg viewBox="0 0 65.37821265159775 95.481" height="95.481" width="65.37821265159775"><g><svg viewBox="0 0 65.37821265159775 95.481" height="95.481" width="65.37821265159775"><g><svg viewBox="0 0 65.37821265159775 95.481" height="95.481" width="65.37821265159775"><g><svg viewBox="0 0 65.37821265159775 95.481" height="95.481" width="65.37821265159775"><g><svg viewBox="0 0 65.37821265159775 95.481" height="95.481" width="65.37821265159775"><g><svg xmlns="http://www.w3.org/2000/svg" xmlns:xlink="http://www.w3.org/1999/xlink" version="1.1" x="0" y="0" viewBox="19.200002670288086 5 61.599998474121094 89.96314239501953" enable-background="new 0 0 100 100" xml:space="preserve" height="95.481" width="65.37821265159775" class="icon-icon-0" data-fill-palette-color="accent" id="icon-0"><path d="M33.2 87.8c10.4 8.8 25.2 9.6 35.4 1.8 7.8-6.7 12.2-16.4 12.2-26.6V16c0-2.5-2-4.6-4.6-4.6s-4.6 2-4.6 4.6v34.5c0 1-0.9 1.9-1.9 1.9s-1.9-0.9-1.9-1.9v-8.1c0-2.5-2-4.6-4.6-4.6-2.5 0-4.6 2-4.6 4.6v4.9c0 1-0.9 1.9-1.9 1.9s-1.9-0.9-1.9-1.9v-9.3c0-2.5-2-4.6-4.6-4.6s-4.6 2-4.6 4.6v9.3c0 1-0.9 1.9-1.9 1.9-1 0-1.9-0.9-1.9-1.9V9.6C42 7 40 5 37.5 5c-2.5 0-4.6 2-4.6 4.6v61.3c0 1-0.9 1.9-1.9 1.9-1 0-1.9-0.9-1.9-1.9V53c-1.1 1-2.7 2.4-5 4.6-3.1 2.9-4.9 6.9-4.9 11.2 0 4.3 1.9 8.5 5.1 11.4L33.2 87.8C33.2 87.8 33.2 87.8 33.2 87.8z" fill="#ee3e38" data-fill-palette-color="accent"/></svg></g></svg></g></svg></g></svg></g></svg></g></svg></g><defs/></svg>