<svg viewBox="0 0 348.123647861541 200" height="200" width="348.123647861541" data-background-color="#ffffff" preserveAspectRatio="xMidYMid meet" id="tight-bounds" xmlns="http://www.w3.org/2000/svg" xmlns:xlink="http://www.w3.org/1999/xlink"><g><svg viewBox="0 0 348.123647861541 200" height="200" width="348.123647861541"><g><svg viewBox="0 0 348.123647861541 200" height="200" width="348.123647861541"><g><svg viewBox="0 0 348.123647861541 200" height="200" width="348.123647861541"><g><svg viewBox="0 0 348.123647861541 200" height="200" width="348.123647861541"><g transform="matrix(1,0,0,1,0,0)"><svg width="348.123647861541" viewBox="0.9999990463256836 -40.43000030517578 164.6999969482422 89.13999938964844" height="200" data-palette-color="#ee3e38"><svg></svg><svg></svg><g class="undefined-text-0" data-fill-palette-color="primary" id="text-0"><path xmlns="http://www.w3.org/2000/svg" d="M6.47-40.43l7.37 28-0.83 3.47-8.35-31.47zM10.08-40.43l5.59 21.24-0.9 3.37-6.47-24.61zM13.75-40.43l3.75 14.23-0.92 3.42-4.67-17.65zM28.78-16.38l-4.32 16.38h-1.83l10.7-40.38-0.03-0.05h1.86v0.05l4.76 16.41 4.37-16.46h1.83l-10.72 40.43h-1.83zM31.49-40.43l-10.69 40.43h-1.81l10.7-40.43zM27.86-40.43l-10.7 40.43h-1.8l10.71-40.43zM57.03-40.43l-10.69 40.43h-1.83l10.69-40.43zM53.37-40.43l-10.69 40.43h-1.81l10.69-40.43zM49.73-40.43l-10.69 40.43h-1.81l10.72-40.43zM2.83-40.43l9.79 36.96 9.79-36.96h1.83l-10.71 40.43h-1.84l-10.69-40.43zM30.62-23.27l-0.91 3.45 4.74 16.5 0.93-3.49zM32.45-30.18l-0.93 3.47 4.76 16.46 0.93-3.45zM34.28-37.06l-0.95 3.52 4.78 16.45 0.9-3.47zM69.14-40.43v40.43h-1.76v-40.43zM65.63-40.43v40.43h-1.76v-40.43zM62.11-40.43v40.43h-1.76v-40.43zM72.66-15.82v7.03h18.7v1.76h-18.7v1.76h18.7v1.75h-18.7v1.76h18.7v1.76h-20.46v-40.43h20.46v1.76h-18.7v1.76h18.7v1.75h-18.7v1.76h18.7v1.76h-18.7v7.03h9.59v1.76h-9.59v1.76h9.59v1.75h-9.59v1.76h9.59v1.76z" fill="#ee3e38" fill-rule="nonzero" stroke="none" stroke-width="1" stroke-linecap="butt" stroke-linejoin="miter" stroke-miterlimit="10" stroke-dasharray="" stroke-dashoffset="0" font-family="none" font-weight="none" font-size="none" text-anchor="none" style="mix-blend-mode: normal" data-fill-palette-color="primary" opacity="1"></path><path xmlns="http://www.w3.org/2000/svg" d="M15.55 28.59v-1.76h10.6c1.607 0 2.97-0.52 4.09-1.56 1.113-1.04 1.67-2.52 1.67-4.44v0c0-1.42-0.587-2.693-1.76-3.82-1.173-1.133-2.507-1.7-4-1.7v0h-15.09v31.64h-1.76v-33.4h16.85c1.987 0 3.737 0.737 5.25 2.21 1.513 1.473 2.27 3.163 2.27 5.07v0c0 2.34-0.733 4.22-2.2 5.64-1.467 1.413-3.24 2.12-5.32 2.12v0zM15.55 32.11v-1.76h10.6c2.54 0 4.72-0.89 6.54-2.67 1.82-1.787 2.73-4.07 2.73-6.85v0c0-2.393-0.93-4.497-2.79-6.31-1.867-1.82-4.027-2.73-6.48-2.73v0h-18.61v35.16h-1.75v-36.91h20.36c1.933 0 3.75 0.497 5.45 1.49 1.707 0.987 3.063 2.317 4.07 3.99 1.007 1.667 1.51 3.437 1.51 5.31v0c0 3.207-1.087 5.887-3.26 8.04-2.173 2.16-4.763 3.24-7.77 3.24v0zM15.55 35.62v-1.76h10.6c2.28 0 4.397-0.56 6.35-1.68 1.947-1.127 3.507-2.693 4.68-4.7 1.173-2.013 1.76-4.23 1.76-6.65v0c0-2.2-0.583-4.263-1.75-6.19-1.16-1.933-2.723-3.477-4.69-4.63-1.973-1.153-4.09-1.73-6.35-1.73v0h-22.12v38.67h-1.76v-40.43h23.88c2.553 0 4.953 0.657 7.2 1.97 2.247 1.307 4.033 3.063 5.36 5.27 1.327 2.207 1.99 4.563 1.99 7.07v0c0 2.893-0.623 5.44-1.87 7.64-1.247 2.193-2.937 3.91-5.07 5.15v0l4.55 13.33h-1.86l-4.35-12.5c-0.647 0.26-1.14 0.44-1.48 0.54v0l4.07 11.96h-1.85l-3.98-11.55c-0.147 0.033-0.67 0.09-1.57 0.17v0l3.79 11.38h-1.86l-3.73-11.33h-1.59l3.57 11.33h-1.86l-3.59-11.33zM14.58 18.82v28.13h-1.76v-29.88h13.33c1.087 0 2.027 0.37 2.82 1.11 0.787 0.74 1.18 1.623 1.18 2.65v0c0 2.827-1.333 4.24-4 4.24v0h-10.6v-1.75h10.6c0.7 0 1.25-0.183 1.65-0.55 0.393-0.367 0.59-1.013 0.59-1.94v0c0-0.573-0.213-1.05-0.64-1.43-0.433-0.387-0.967-0.58-1.6-0.58v0zM53.22 19.9c-1.887 1.887-2.83 4.167-2.83 6.84 0 2.667 0.943 4.943 2.83 6.83 1.887 1.887 4.167 2.83 6.84 2.83 2.667 0 4.943-0.943 6.83-2.83 1.893-1.887 2.84-4.163 2.84-6.83 0-2.673-0.947-4.953-2.84-6.84-1.887-1.887-4.163-2.83-6.83-2.83-2.673 0-4.953 0.943-6.84 2.83zM49.54 31.17c-0.607-1.413-0.91-2.89-0.91-4.43 0-1.547 0.303-3.027 0.91-4.44 0.6-1.407 1.413-2.623 2.44-3.65 1.027-1.02 2.243-1.833 3.65-2.44 1.407-0.6 2.883-0.9 4.43-0.9 1.547 0 3.023 0.3 4.43 0.9 1.407 0.607 2.623 1.42 3.65 2.44 1.027 1.027 1.84 2.243 2.44 3.65 0.6 1.413 0.9 2.893 0.9 4.44 0 1.54-0.3 3.017-0.9 4.43-0.6 1.407-1.413 2.623-2.44 3.65-1.027 1.02-2.243 1.833-3.65 2.44-1.407 0.6-2.883 0.9-4.43 0.9-1.547 0-3.023-0.3-4.43-0.9-1.407-0.607-2.623-1.42-3.65-2.44-1.027-1.027-1.84-2.243-2.44-3.65zM48.65 20.12c-1.18 2.02-1.77 4.227-1.77 6.62 0 2.387 0.59 4.59 1.77 6.61 1.18 2.02 2.777 3.62 4.79 4.8 2.02 1.18 4.227 1.77 6.62 1.77 2.393 0 4.597-0.59 6.61-1.77 2.02-1.18 3.62-2.78 4.8-4.8 1.18-2.02 1.77-4.223 1.77-6.61 0-2.393-0.59-4.6-1.77-6.62-1.18-2.02-2.78-3.62-4.8-4.8-2.013-1.18-4.217-1.77-6.61-1.77-2.393 0-4.6 0.59-6.62 1.77-2.013 1.18-3.61 2.78-4.79 4.8zM47.12 34.23c-1.333-2.293-2-4.79-2-7.49 0-2.707 0.667-5.207 2-7.5 1.333-2.293 3.147-4.107 5.44-5.44 2.3-1.34 4.8-2.01 7.5-2.01 2.7 0 5.197 0.67 7.49 2.01 2.3 1.333 4.117 3.147 5.45 5.44 1.333 2.293 2 4.793 2 7.5 0 2.7-0.667 5.197-2 7.49-1.333 2.293-3.15 4.107-5.45 5.44-2.293 1.34-4.79 2.01-7.49 2.01-2.7 0-5.2-0.67-7.5-2.01-2.293-1.333-4.107-3.147-5.44-5.44zM44.68 20.24c-0.88 2.067-1.32 4.233-1.32 6.5 0 2.26 0.44 4.423 1.32 6.49 0.88 2.067 2.063 3.843 3.55 5.33 1.487 1.493 3.263 2.68 5.33 3.56 2.073 0.873 4.24 1.31 6.5 1.31 2.26 0 4.423-0.437 6.49-1.31 2.067-0.88 3.847-2.067 5.34-3.56 1.487-1.487 2.67-3.263 3.55-5.33 0.88-2.067 1.32-4.23 1.32-6.49 0-2.267-0.44-4.433-1.32-6.5-0.88-2.067-2.063-3.843-3.55-5.33-1.493-1.493-3.273-2.68-5.34-3.56-2.067-0.873-4.23-1.31-6.49-1.31-2.26 0-4.427 0.437-6.5 1.31-2.067 0.88-3.843 2.067-5.33 3.56-1.487 1.487-2.67 3.263-3.55 5.33zM44.08 35.99c-1.653-2.833-2.48-5.917-2.48-9.25 0-3.34 0.827-6.427 2.48-9.26 1.653-2.833 3.897-5.073 6.73-6.72 2.827-1.653 5.91-2.48 9.25-2.48 3.333 0 6.417 0.827 9.25 2.48 2.833 1.647 5.077 3.887 6.73 6.72 1.653 2.833 2.48 5.92 2.48 9.26 0 3.333-0.827 6.417-2.48 9.25-1.653 2.833-3.897 5.073-6.73 6.72-2.833 1.653-5.917 2.48-9.25 2.48-3.34 0-6.423-0.827-9.25-2.48-2.833-1.647-5.077-3.887-6.73-6.72zM41.44 18.89c-1.067 2.493-1.6 5.11-1.6 7.85 0 2.733 0.533 5.347 1.6 7.84 1.067 2.5 2.503 4.653 4.31 6.46 1.807 1.807 3.96 3.243 6.46 4.31 2.5 1.067 5.117 1.6 7.85 1.6 2.733 0 5.35-0.533 7.85-1.6 2.5-1.067 4.653-2.503 6.46-4.31 1.807-1.807 3.24-3.96 4.3-6.46 1.067-2.493 1.6-5.107 1.6-7.84 0-2.74-0.533-5.357-1.6-7.85-1.06-2.5-2.493-4.653-4.3-6.46-1.807-1.807-3.96-3.243-6.46-4.31-2.5-1.067-5.117-1.6-7.85-1.6-2.733 0-5.35 0.533-7.85 1.6-2.5 1.067-4.653 2.503-6.46 4.31-1.807 1.807-3.243 3.96-4.31 6.46zM39.83 35.27c-1.16-2.713-1.74-5.557-1.74-8.53 0-2.98 0.58-5.827 1.74-8.54 1.167-2.707 2.73-5.04 4.69-7 1.96-1.967 4.297-3.53 7.01-4.69 2.707-1.167 5.55-1.75 8.53-1.75 2.98 0 5.823 0.583 8.53 1.75 2.713 1.16 5.05 2.723 7.01 4.69 1.96 1.96 3.523 4.293 4.69 7 1.16 2.713 1.74 5.56 1.74 8.54 0 2.973-0.58 5.817-1.74 8.53-1.167 2.707-2.73 5.04-4.69 7-1.96 1.967-4.297 3.53-7.01 4.69-2.707 1.167-5.55 1.75-8.53 1.75-2.98 0-5.823-0.583-8.53-1.75-2.713-1.16-5.05-2.723-7.01-4.69-1.96-1.96-3.523-4.293-4.69-7zM116.19 20.34v0l-1.44 0.95c-0.88-1.3-2.023-2.33-3.43-3.09-1.413-0.753-2.94-1.13-4.58-1.13v0c-2.673 0-4.953 0.943-6.84 2.83-1.887 1.887-2.83 4.167-2.83 6.84 0 2.667 0.943 4.943 2.83 6.83 1.887 1.887 4.167 2.83 6.84 2.83v0c1.64 0 3.167-0.38 4.58-1.14 1.407-0.767 2.55-1.8 3.43-3.1v0l1.41 1.02c-1.04 1.533-2.39 2.747-4.05 3.64-1.66 0.893-3.45 1.34-5.37 1.34v0c-1.547 0-3.023-0.3-4.43-0.9-1.407-0.607-2.623-1.42-3.65-2.44-1.027-1.027-1.84-2.243-2.44-3.65-0.607-1.413-0.91-2.89-0.91-4.43 0-1.547 0.303-3.027 0.91-4.44 0.6-1.407 1.413-2.623 2.44-3.65 1.027-1.02 2.243-1.833 3.65-2.44 1.407-0.6 2.883-0.9 4.43-0.9v0c1.933 0 3.73 0.45 5.39 1.35 1.66 0.907 3.013 2.133 4.06 3.68zM119.09 18.34v0l-1.46 0.95c-1.207-1.76-2.767-3.157-4.68-4.19-1.913-1.033-3.983-1.55-6.21-1.55v0c-2.393 0-4.6 0.59-6.62 1.77-2.02 1.18-3.62 2.78-4.8 4.8-1.18 2.02-1.77 4.227-1.77 6.62 0 2.387 0.59 4.59 1.77 6.61 1.18 2.02 2.78 3.62 4.8 4.8 2.02 1.18 4.227 1.77 6.62 1.77v0c2.227 0 4.3-0.52 6.22-1.56 1.92-1.047 3.483-2.457 4.69-4.23v0l1.44 1c-1.367 2.02-3.137 3.617-5.31 4.79-2.173 1.173-4.52 1.76-7.04 1.76v0c-2.7 0-5.2-0.67-7.5-2.01-2.293-1.333-4.107-3.147-5.44-5.44-1.333-2.293-2-4.79-2-7.49 0-2.707 0.667-5.207 2-7.5 1.333-2.293 3.147-4.107 5.44-5.44 2.3-1.34 4.8-2.01 7.5-2.01v0c2.52 0 4.867 0.587 7.04 1.76 2.173 1.173 3.943 2.77 5.31 4.79zM122.02 16.38v0l-1.46 0.96c-1.533-2.247-3.517-4.027-5.95-5.34-2.433-1.307-5.057-1.96-7.87-1.96v0c-2.267 0-4.433 0.437-6.5 1.31-2.067 0.88-3.843 2.067-5.33 3.56-1.487 1.487-2.67 3.263-3.55 5.33-0.88 2.067-1.32 4.233-1.32 6.5 0 2.26 0.44 4.423 1.32 6.49 0.88 2.067 2.063 3.843 3.55 5.33 1.487 1.493 3.263 2.68 5.33 3.56 2.067 0.873 4.233 1.31 6.5 1.31v0c2.833 0 5.46-0.657 7.88-1.97 2.427-1.32 4.407-3.103 5.94-5.35v0l1.41 1.05c-1.693 2.473-3.877 4.43-6.55 5.87-2.68 1.44-5.573 2.16-8.68 2.16v0c-3.34 0-6.423-0.827-9.25-2.48-2.833-1.647-5.077-3.887-6.73-6.72-1.653-2.833-2.48-5.917-2.48-9.25 0-3.34 0.827-6.427 2.48-9.26 1.653-2.833 3.897-5.073 6.73-6.72 2.827-1.653 5.91-2.48 9.25-2.48v0c3.127 0 6.03 0.727 8.71 2.18 2.687 1.46 4.877 3.433 6.57 5.92zM124.9 14.38v0l-1.46 0.95c-1.86-2.713-4.257-4.86-7.19-6.44-2.94-1.58-6.11-2.37-9.51-2.37v0c-2.733 0-5.35 0.533-7.85 1.6-2.5 1.067-4.653 2.503-6.46 4.31-1.807 1.807-3.243 3.96-4.31 6.46-1.067 2.493-1.6 5.11-1.6 7.85 0 2.733 0.533 5.347 1.6 7.84 1.067 2.5 2.503 4.653 4.31 6.46 1.807 1.807 3.96 3.243 6.46 4.31 2.5 1.067 5.117 1.6 7.85 1.6v0c3.4 0 6.573-0.797 9.52-2.39 2.947-1.6 5.347-3.757 7.2-6.47v0l1.42 1.07c-2.02 2.933-4.623 5.257-7.81 6.97-3.193 1.72-6.637 2.58-10.33 2.58v0c-2.98 0-5.823-0.583-8.53-1.75-2.713-1.16-5.05-2.723-7.01-4.69-1.96-1.96-3.523-4.293-4.69-7-1.16-2.713-1.74-5.557-1.74-8.53 0-2.98 0.58-5.827 1.74-8.54 1.167-2.707 2.73-5.04 4.69-7 1.96-1.967 4.297-3.53 7.01-4.69 2.707-1.167 5.55-1.75 8.53-1.75v0c3.707 0 7.157 0.863 10.35 2.59 3.193 1.727 5.797 4.07 7.81 7.03zM140.58 6.52v40.43h-1.76v-40.43zM137.06 6.52v40.43h-1.76v-40.43zM133.54 6.52v40.43h-1.75v-40.43zM130.03 6.52v40.43h-1.76v-40.43zM163.75 46.95l-10.33-20.21 10.33-20.22h1.95l-10.33 20.22 10.33 20.21zM159.81 46.95l-10.32-20.21 10.32-20.22h1.96l-10.33 20.22 10.33 20.21zM155.88 46.95l-10.32-20.21 10.32-20.22h1.96l-10.33 20.22 10.33 20.21zM151.95 46.95l-10.35-20.21 10.35-20.22h1.96l-10.36 20.22 10.36 20.21z" fill="#ee3e38" fill-rule="nonzero" stroke="none" stroke-width="1" stroke-linecap="butt" stroke-linejoin="miter" stroke-miterlimit="10" stroke-dasharray="" stroke-dashoffset="0" font-family="none" font-weight="none" font-size="none" text-anchor="none" style="mix-blend-mode: normal" data-fill-palette-color="primary" opacity="1"></path></g></svg></g></svg></g></svg></g></svg></g></svg></g><defs></defs></svg>